<svg height="340.610665" viewBox="0 0 1170.27 1357" width="293.590337" xmlns="http://www.w3.org/2000/svg" xmlns:xlink="http://www.w3.org/1999/xlink"><clipPath id="a"><path d="m601.6 826.62 4.77-23.23s.85 3.24.36 10.08-5.13 13.15-5.13 13.15"/></clipPath><path d="m444.54 436.29v-75.12c29.76 22.92 56.47 43.46 62.33 48a277.73 277.73 0 0 0 -62.33 27.14m-127.69 166.5h-17c-26.36-33-107.83-135.13-115.27-144.44 10.37 1.39 112.81 15 165.25 21.92v48a277.31 277.31 0 0 0 -32.95 74.53m267.32 556.37q-15 0-29.86-1c-20.16-96.76-41.49-199.1-41.49-199.1s-143.9 114.91-155 123.76c1.89-14 26-195.8 26-195.8s-181.12 27.47-195.14 29.54c8.72-11.28 120.71-156.89 120.71-156.89s-112.62-27.43-197.16-48.21c-.07-.89-.19-1.78-.27-2.67 0 .85-.12 1.71-.17 2.55-20.86-5.11-39.93-9.84-55.24-13.64h250.89c10.19 144.06 129.53 257.54 275.19 259.45l1.85 202h-.34m1.68 150.44c-2-9.77-4.82-23.14-8.11-39 2.5 0 5 .08 7.53.08h.24l.34 38.94m6.15.72-.37-39.72c2.66 0 5.3-.11 7.94-.19-3.08 16.32-5.69 30-7.57 39.91" fill="#b7ab8d"/><path d="m349.8 528.28v-48l30.55 4s-27.35-181.28-29.55-195.28c6.19 4.79 52.84 40.68 93.74 72.14v75.12a281 281 0 0 0 -94.74 92m-42.33 169.47h-250.9c-18.47-4.6-31.33-7.86-34.88-8.89 18.24-5.45 286.31-75.79 286.31-75.79s-3.05-3.81-8.16-10.24h17a277.67 277.67 0 0 0 -10.06 77.19q0 9 .69 17.76" fill="#b7ab8d"/><path d="m508.27 408.72.64-3.61s63.5-344 68.63-372.85c5.65 27.27 68.92 339.16 75.88 373.39a280.46 280.46 0 0 0 -66.85-8.07h-2.54a281.62 281.62 0 0 0 -75.76 11.12m275.09 69.84a280.2 280.2 0 0 0 -126.61-72.07c19.97-15.9 142.25-113.39 152.25-121.55-1.72 13.08-22.9 173.08-25.64 193.64m74.35 129.44a279.38 279.38 0 0 0 -72.49-127.58c20.37-3.07 180-27.15 193-29.21-8.15 11-115.22 150-120.49 156.79m-267.1 551.12-1.83-201.92h.2c154.67-1.53 278.78-127.69 277.41-282.36a276.51 276.51 0 0 0 -8.6-66.49c9.67 2.37 266.46 65.39 287.74 70.59-7.47 1.95-44.17 11.65-89 23.51 0-.66-.1-1.34-.16-2-.05.69-.1 1.35-.18 2.06-84.41 22.32-197.34 52.22-197.34 52.22s114.56 143.75 123.43 154.85c-13.82-1.88-195.66-26.12-195.66-26.12s27.36 181.32 29.55 195.3c-11.26-8.71-157.23-121-157.23-121s-19.51 102.81-38 200q-15 1.21-30.36 1.43" fill="#b7ab8d"/><path d="m574.3 15.53s-68.81 373.88-70.51 383.6c-7.69-5.97-161.35-124.13-161.35-124.13s29.38 194.29 30.41 202.14l-202.64-27s121.88 152.86 127.35 159.66c-8.36 2.57-297.56 79.2-297.56 79.2s290.54 71.7 298.91 74.09c-5.28 7-124.43 161.83-124.43 161.83s194.44-29.36 202.28-30.56c-1.2 7.86-27.13 202.81-27.13 202.81s151.78-121 159.28-127c2 9.55 80.58 386.81 80.58 386.81s71.69-378.62 73.57-388.18c7.69 5.79 161.49 124.12 161.49 124.12s-29.55-194.44-30.55-202.11l202.84 26.79s-121.57-152.28-127.2-159.28c8.7-2.56 300.63-79.55 300.63-79.55s-293.28-72-302-74.25c5.47-7 124.12-161.68 124.12-161.68s-194.3 29.36-202.16 30.56c1.06-7.68 26.82-202.81 26.82-202.81s-151.57 121.22-159.11 127c-1.88-9.59-80.57-397.59-80.57-397.59zm-65.39 389.58s63.5-344 68.63-372.85c6 28.87 76.48 376.43 76.48 376.43s144.07-114.87 154.98-123.77c-1.88 14-26 195.83-26 195.83s181.29-27.32 195.13-29.54c-8.36 11.26-120.67 157.05-120.67 157.05s266.29 65.4 288 70.68c-21.53 5.63-286.64 75.8-286.64 75.8s114.61 143.74 123.48 154.84c-13.82-1.88-195.66-26.12-195.66-26.12s27.36 181.29 29.55 195.3c-11.26-8.71-157.23-121-157.23-121s-64.51 339.72-69.82 367.72c-5.8-28-76.32-366.35-76.32-366.35s-143.9 114.91-155 123.76c1.89-14 26-195.8 26-195.8s-181.12 27.47-195.14 29.54c8.72-11.28 120.71-156.9 120.71-156.9s-269.28-65.58-287.7-70.89c18.31-5.46 286.31-75.84 286.31-75.84s-114.58-143.53-123.45-154.63c14 1.89 195.8 26 195.8 26s-27.35-181.37-29.55-195.37c11.28 8.71 157.24 121 157.24 121l.87-4.95" fill="#3e4683"/><path d="m19.45 685.96.11 5.87 287.69-2.55-.01-5.94z" fill="#3e4683"/><path d="m863.11 678.28v6.19l289.21-2.64v-6.06z" fill="#3e4683"/><path d="m825.25 533.95 2.54 4.8 157.99-89.01-2.73-4.72z" fill="#3e4683"/><path d="m721.19 429.77 4.72 2.67 89.27-152.83-4.75-2.74z" fill="#3e4683"/><path d="m573.92 24.71 3.29 372.92 6.13-.03-3.31-373z" fill="#3e4683"/><path d="m345.36 286.71 90.77 155.83 4.62-2.67-90.93-155.8z" fill="#3e4683"/><path d="m178.2 456.76 157.76 97.37 2.8-4.55-157.72-97.32z" fill="#3e4683"/><path d="m182.91 915.79 2.42 4.72 165.46-90.82-2.61-4.73z" fill="#3e4683"/><path d="m352.97 1084.26 4.89 2.83 91.76-166.43-4.98-2.77z" fill="#3e4683"/><path d="m582.66 956.7 3.41 376.92 6.14-.18-3.41-376.91z" fill="#3e4683"/><path d="m714.03 918.84 101.94 164.67 5.31-3.26-101.98-164.74z" fill="#3e4683"/><path d="m822.22 822.88 163.1 91.01 2.35-4.34-163.01-91.04z" fill="#3e4683"/><path d="m866.38 674.84c-1.38-154.32-127.86-278.6-282.38-277.24-154.64 1.53-278.58 127.87-277.22 282.4 1.22 154.46 127.68 278.58 282.22 277.2 154.67-1.53 278.78-127.69 277.41-282.36" fill="#3e4683"/><path d="m378 679.28c1 114.91 95.42 207.6 210.33 206.57 115.06-1 207.57-95.43 206.72-210.32-1.21-114.89-95.46-207.6-210.35-206.53-114.89 1.16-207.58 95.38-206.7 210.28m12.79-.16c-1.21-107.89 86.21-196.67 193.91-197.53 108.08-1 196.51 86.05 197.52 194.11s-86 196.49-193.91 197.53-196.7-86.05-197.54-194.11" fill="#b7ab8d"/><path d="m170.57 448.21c85-137.64 242.59-243.28 406.71-244.73 170.89-1.56 322.72 93.77 414.47 240.21l-1.29-157.24c-104.53-129.32-251.62-198.1-414.17-196.59-160.79 1.4-305.17 76.42-407.16 205.06z" fill="#3e4683"/><path d="m588.31 1159.17c-247.21 2.21-452.07-195.64-476.31-450.35-1.22 15.89-1.7 31.76-1.53 47.8 2.55 286.29 217 516.42 478.85 514s472-236.27 469.48-522.58c-.17-16.05-1-31.92-2.39-47.62-19.63 255-220.93 456.49-468.09 458.71" fill="#3e4683"/><g fill="#b5ab8d"><path d="m240.91 1019.19 8.4 9.36-16.92 21.51 23.23-14.31 8.5 9.36-33.19 29.42-5.18-5.77 25.28-22.42-29.21 17.92-4.76-5.23 21.28-27-25.17 22.37-5.32-5.68z"/><path d="m255.42 1088.38-7.82-7.59-6.12 4.16-7-6.79 39.26-23.41 7.44 7.24-22.8 39.74-7-7zm5.21-8.13 8.78-13.7-13.58 9z"/><path d="m301 1080.27 7 6.47-16 18a53.29 53.29 0 0 1 -8.3 7.92 13.58 13.58 0 0 1 -7.33 2.51 9.91 9.91 0 0 1 -7.16-2.81c-2.38-2.07-3.84-4.16-4.25-6.17a11.1 11.1 0 0 1 .59-6.6 26.66 26.66 0 0 1 4.55-7.56l7.93 4.79-2.65 3.44-.6 2.49.72 1.4 2.9.36a16.65 16.65 0 0 0 4.35-3.76z"/><path d="m312.71 1090.64 7.37 6.03-21.15 25.79 11.57 9.45-6.92 8.46-18.83-15.46z"/><path d="m335.06 1108.65 7.54 5.76-26.71 35.21-7.72-5.78z"/><path d="m329.27 1141.5 7.93 4.65a14 14 0 0 0 -1.77 4.58 4.64 4.64 0 0 0 1.81 4.63l3.47.69 2.78-2 .81-3.09c0-1.16-.79-2.77-2.53-4.9-2.7-3.56-4-6.68-4.13-9.57s.69-5.63 2.66-8.54a15.09 15.09 0 0 1 4.74-4.5 10.81 10.81 0 0 1 6.11-1.54 14 14 0 0 1 7.16 2.95c3.3 2.3 5.17 4.9 5.58 7.71.6 3-.3 6.41-2.62 10.42l-7.82-4.57c1-1.76 1.44-3.26 1.14-4.42l-1.7-2.9-2.63-.67-2.21 1.51-.38 2.06 1.56 3.09a33.76 33.76 0 0 1 5.19 8.38 12.82 12.82 0 0 1 .47 6.32 15.51 15.51 0 0 1 -2.82 6.06 19.55 19.55 0 0 1 -5.81 5.45 12.36 12.36 0 0 1 -7 1.85 13.28 13.28 0 0 1 -6.95-2.79c-4.45-3-6.6-6.25-6.49-9.78-.11-3.54 1.08-7.16 3.43-11.06"/><path d="m384.27 1143 13.81 8.09c2.86 1.69 4.63 4 4.91 7 .25 2.82-.75 6.22-2.94 10-2.2 3.88-4.74 6.38-7.73 7.62s-5.91.88-9.25-1.09l-4.55-2.58-8.29 14-8.19-4.86zm-1.2 21.16 2 1.16 4 .72 2.78-2.34.91-3.62-2.32-3.09-2.4-1.33z"/><path d="m410.61 1158.23 22.79 11.64-4.15 8.46-14.48-7.33-3.13 6.29 13.26 6.78-4.13 8.05-13.2-6.71-4.06 7.7 14.73 7.49-4.52 8.85-23.12-11.7z"/><path d="m440.75 1203.89 3.58-8.49 13.66 5.81-7.37 17.34a29.32 29.32 0 0 1 -9.05 2.28 18.93 18.93 0 0 1 -7.72-1.57 14.75 14.75 0 0 1 -7.24-6 17.85 17.85 0 0 1 -1.84-9.45 40.16 40.16 0 0 1 3-11.92 33.27 33.27 0 0 1 6.84-10.86 16.54 16.54 0 0 1 8.78-5c2.47-.62 5.35-.17 8.64 1.26 3.11 1.39 5.27 2.68 6.59 4.2a11.26 11.26 0 0 1 2.17 5.43 20.42 20.42 0 0 1 -.43 7.51l-9.32-1.39-.32-4.29-2.67-2.63a5.66 5.66 0 0 0 -5.85 1c-2 1.47-3.88 4.27-5.62 8.4-1.72 4.45-2.56 7.87-2.19 10.22a5.49 5.49 0 0 0 3.58 4.8l3.12.59 3.87-.74 1.7-3.82-5.92-2.56"/><path d="m488.59 1191.55 9 3-8.19 25a35.55 35.55 0 0 1 -3.1 6.76 16.64 16.64 0 0 1 -4.54 4.94l-4.61 2.36a14.43 14.43 0 0 1 -6.81-.71l-4.7-2-3.64-3.17a14.38 14.38 0 0 1 -1.9-4.61 16 16 0 0 1 -.3-5.53 34.37 34.37 0 0 1 1.51-7.26l8.29-25.11 9 2.93-8.46 25.69a9.85 9.85 0 0 0 -.4 5.8l3 3.16 4.42-.69a10.27 10.27 0 0 0 3.05-4.93l8.39-25.67"/><path d="m510.91 1235.86-10.52-2.57-3.12 6.65-9.56-2.2 21.58-40.29 10.24 2.4 1 45.75-9.72-2.35zm.43-9.82.22-16.2-6.87 14.58z"/><path d="m532.06 1202.86 12.56 1.68 1.14 27.37 8.49-26.06 12.41 1.61-6.08 43.94-7.63-1.16 4.5-33.37-10.46 32.61-7.08-.97-1.31-34.21-4.7 33.46-7.71-1.04z"/><path d="m639.79 1205.39 17.49-3.24a8 8 0 0 1 7.23 1.82 12.56 12.56 0 0 1 3.84 7.35 14 14 0 0 1 -.47 7l-2.8 3.44a8.73 8.73 0 0 1 5.59 3 16 16 0 0 1 2.81 6.61 22.7 22.7 0 0 1 0 6.32 11.67 11.67 0 0 1 -2.17 4.86l-3.31 2.06a22.89 22.89 0 0 1 -4.15 1.29l-16.28 3-7.81-43.41m12.5 15.32 4.05-.71 2.86-1.68.3-3.34-1.47-2.87-3.1-.45-4.29.79zm3.14 17.14 4.79-1 3.16-1.86.37-3.42-1.43-3-3.75-.55-4.82.93z"/><path d="m698.81 1229.91-10.45 3 .59 7.37-9.42 2.61-.83-45.73 10-2.69 23.19 39.38-9.69 2.71zm-4.55-8.6-7.52-14.49.92 16.26z"/><path d="m717.3 1231.89-15.73-41.44 14.9-5.69a18.4 18.4 0 0 1 6.71-1.29l4.89 2.5a15.1 15.1 0 0 1 4 6.14 17.18 17.18 0 0 1 1.18 6.38 11.54 11.54 0 0 1 -1.21 5.09l-2.51 2.84 2.8.62 2.31 1.69 2.32 2 8.86 10.39-10.22 3.88-9.6-11-2.86-2.56-2.45-.07-.87.34 6.48 16.72-9 3.44m-.33-28.1 3.76-1.35 2-1.46 1-1.84-.39-2.66-2-2.72-3.82.22-3.9 1.49z"/><path d="m774.62 1186.79 9-.64a28.54 28.54 0 0 1 1.65 8.7 14.18 14.18 0 0 1 -1.65 6.6 12.49 12.49 0 0 1 -5.31 4.69 14.06 14.06 0 0 1 -8.26 1.91 16.4 16.4 0 0 1 -8.23-4c-3.13-2.32-5.9-6-8.36-10.94-3.29-6.55-4.75-12.06-4.27-16.87a13.45 13.45 0 0 1 7.63-10.48 12.62 12.62 0 0 1 9.68-1.3c3.13 1 6.15 3.28 9.16 6.94l-6.22 6.26-2.21-2.14-2.85-1.3-2.59.47c-1.93 1-3 2.8-2.72 5.56 0 2 1 4.92 2.75 8.43 2.26 4.32 4.45 7.07 6.05 8.25a5.21 5.21 0 0 0 5.25.4l2.68-3.85a19.14 19.14 0 0 0 -1.15-6.69"/><path d="m783.59 1177.45c-3.73-6.17-5.4-11.66-5.3-16.59a13.81 13.81 0 0 1 6.88-11.37c4.38-2.65 8.76-3.07 13.19-1.13s8.51 5.8 12.38 11.86a37.4 37.4 0 0 1 5 11.81 17.14 17.14 0 0 1 -.26 9.39 14 14 0 0 1 -6 6.85 15.14 15.14 0 0 1 -8.57 2.56 16.25 16.25 0 0 1 -8.65-3.52c-3.15-2.26-5.9-5.45-8.74-9.86m8.13-5c2.48 3.76 4.58 6.13 6.64 7.23a5.06 5.06 0 0 0 5.47 0 5.22 5.22 0 0 0 2.6-4.91c-.07-2.23-1.39-5.46-4-9.61-2.2-3.55-4.27-5.83-6.3-6.88a5.41 5.41 0 0 0 -5.56 0 5.18 5.18 0 0 0 -2.37 5c0 2.29 1.14 5.38 3.52 9.18"/><path d="m819 1127.61 7.67-5.51 15.45 21.37a40.53 40.53 0 0 1 3.66 6.55 17.41 17.41 0 0 1 1.33 6.5 10.67 10.67 0 0 1 -.88 5.19 13.72 13.72 0 0 1 -4.61 5.12l-4.29 2.51-4.66 1.13a15.2 15.2 0 0 1 -4.89-1.18 13.73 13.73 0 0 1 -4.51-3 35.52 35.52 0 0 1 -5.16-5.56l-15.45-21.42 7.7-5.53 15.79 21.91c1.48 2 2.83 3.26 4.52 3.78l4.28-.65 2-3.89a9.93 9.93 0 0 0 -2.15-5.41l-15.78-22"/><path d="m831.08 1118.67 6.83-5.63 24.5 11.57-15.4-18.87 6.98-5.67 27.81 34.21-6.87 5.63-24.3-11.41 15.3 18.76-6.83 5.72z"/><path d="m890.9 1101.76 8.67-2.9a25.81 25.81 0 0 1 3.65 8 11.34 11.34 0 0 1 -3.72 12.73 16.16 16.16 0 0 1 -7.45 4c-2.56.44-5.73-.23-9.11-1.76-3.55-1.51-7.16-4.4-10.8-8.49-4.91-5.35-7.71-10.46-8.31-15.14-.77-4.75.84-8.79 4.48-12.14a12.76 12.76 0 0 1 9.15-3.66c3 .12 6.59 1.62 10.51 4.35l-4.3 7.64-2.7-1.6-3.11-.38-2.47 1c-1.69 1.44-1.93 3.44-1.16 6.09.63 2 2.23 4.46 4.86 7.36 3.34 3.62 6 5.78 7.88 6.41 2.17.67 3.82.35 5.18-.93a4.35 4.35 0 0 0 1.52-4.39 17.51 17.51 0 0 0 -2.77-6.17"/><path d="m882.62 1073.61 6.88-6.72 30.93 31.6-6.81 6.75z"/><path d="m894.22 1062.41 6.52-6.85 23.99 23.14 10.29-10.7 7.9 7.56-16.95 17.54z"/><path d="m370.45 157.76 18-7.24 30.1 75.21-11.79 4.68-20.15-50.77c-.62-1.56-1.52-3.6-2.52-6.23s-1.79-4.7-2.3-6.07l13.76 67.66-12.3 4.79-36.33-58.63c.55 1.5 1.38 3.49 2.31 6.21 1.1 2.58 2.06 4.55 2.66 6l20.18 50.9-11.62 4.66-29.91-75.23 18.2-7.26 34.43 54.77z"/><path d="m425.2 139.89 14.74-3.89 42.91 72.42-14.15 3.8-8.33-15-23.09 6.12.16 17.1-13.71 3.62zm12.08 49 16-4.17-16.15-28.72z"/><path d="m476.31 127.66 13.27-2.02 10.42 65.54 31.79-5.04 2.24 14.4-45.06 7.17z"/><path d="m555.64 118 15.25-.78 26.6 79.78-14.56.69-5.15-16.42-23.61 1-3.65 17-14 .65zm1.47 50.34 16.55-.77-9.72-31.42z"/><path d="m636.71 118.55 15.28.79-24.26 49.37-1.75 30.3-13.45-.76 1.76-30.22-19.61-51.83 15.82.88 11.56 35.96z"/><path d="m666.72 178.19a17.49 17.49 0 0 0 1 8.54c1.6 3.71 5.19 6 10.5 6.91a19.47 19.47 0 0 0 8 0c4.09-1 6.61-3.73 7.33-8.23a7.28 7.28 0 0 0 -1.77-6.62c-1.48-1.7-4.31-3.45-8.08-5.25l-6.59-3.13c-6.53-3.06-10.83-5.92-13-8.59-3.63-4.36-4.69-10.49-3.38-18.34 1.32-7.17 4.37-12.74 9.46-16.64 4.86-4 11.49-5.3 19.59-3.9a24.33 24.33 0 0 1 16.22 9.62q6.13 8 4.15 20.71l-12.69-2.27c.57-4.82-.53-8.52-3.28-11.15a16.07 16.07 0 0 0 -7.73-3.37 13.14 13.14 0 0 0 -8.79 1.16c-2.45 1.34-3.87 3.6-4.5 6.76a7.74 7.74 0 0 0 2.05 6.92c1.17 1.13 3.82 2.71 7.82 4.76l10.65 5.3c4.61 2.31 7.89 4.86 10 7.65 3.16 4.42 4.15 10.24 2.94 17.28-1.38 7.32-4.56 13-9.94 17s-12 5.33-20.37 3.82c-8.23-1.35-14.44-4.88-18.42-10.44s-5.29-12.53-3.85-20.85l12.7 2.27"/><path d="m721.85 215.37-13.08-3.4 20.65-78.31 12.87 3.39z"/><path d="m777.13 147.9 14.36 5-5.87 83.95-13.75-4.85 1.6-17.13-22.28-8-9.69 14.26-13.43-4.84zm-17.88 47 15.58 5.63 3.1-32.75z"/><path d="m599.22 1214.48-.51.68.51 15 5.63 2.39 13.65-7.34-.17-1.19c0-.34-.31-6.15-4.62-8l-3.42-.85-2.87-1.88c-4.46-1.87-7.86 1.2-8.2 1.2m6.82 2 2.56 1.52.85.19 2.91.85 2.38 4.09-10.08 5.47-2-.85-.52-11.09 3.92-.18"/><path d="m590.52 1215.34-2 2.56-2.93 2a7.39 7.39 0 0 0 -1.87 5.29 16.38 16.38 0 0 0 1 5.3l.34 1 14 2 4.12-3.93v-15.55l-1.55-.32c-.67-.18-7.69-1.72-11.08 1.53m-3.45 9.9.9-2.73 2.55-2 .49-.51 1.89-2.21c1.18-1.2 4.42-1.2 6.83-.71v11.27l-1.7 1.55c-1.54-.17-8.54-1.2-10.43-1.55l-.53-3.06"/><path d="m615.78 1222.84-12.63 6.5-1.21 5.46 9.73 12 1.21-.35c.83-.17 7.33-2.56 8.18-7l.37-3.41 1-3.41.18-1c-.18-4.28-4.28-8-4.79-8.54l-.85-.69-1.19.51m.34 3.6 3.08 5.12v.51l-1.2 2.86v.85l-.35 3.08c-.38 1.36-2.75 2.9-4.79 3.92l-7.35-8.87.51-2.39c1.18-.69 8.38-4.28 10.08-5.12"/><path d="m583.86 1224.55c-.52.85-2.76 5.3-2.76 9.06l.52 2.38 1.57 2.91 1 3.06c1.56 3.94 8.39 4.8 9.07 5h1l7.87-13-2-5.12-15.6-5.84-.67 1.53m3.39 16.06-.84-2.74-.34-.85-1.17-2.4-.2-1c-.17-1.72.68-4.09 1.71-6.16 2.22.85 9.91 3.76 11.11 4.11l.66 2-5.62 9.72c-1.88-.51-4.77-1.37-5.31-2.72"/><path d="m604 1231.89-4.79.18-9.4 12.11.7 1c.32.69 3.73 6.49 8.35 6.49l3.25-.34 3.41.34c4.63-.17 7.83-6 8.37-6.66l.52-1-9.57-12.11h-.84m-.86 3.58 7.14 8.89-4.76 3.92-3.09-.32h-.84l-2.73.32-5-3.92 7-8.89h2.22"/><path d="m602.12 1238a6.32 6.32 0 0 1 -2.22-.39l1.28-2.17h1.31l1.75 2.16a5.63 5.63 0 0 1 -2.12.4"/><path d="m604.24 1237.63-1.75-2.15h.66l1.55 1.93a2.43 2.43 0 0 1 -.46.22"/><path d="m596.73 1235.25a6.66 6.66 0 0 1 -.93-2.11l2.32.33z"/><path d="m598.13 1233.47-2.32-.33a5.71 5.71 0 0 1 -.19-1.42 4.11 4.11 0 0 1 .07-.78c.87.3 1.53.53 1.83.62l.63 1.89"/><path d="m599.15 1228.46-2.14-.79a6.71 6.71 0 0 1 2.07-1.73zm5.41.14-1.41-.59v-2.7a6.35 6.35 0 0 1 3.69 2.11zm2.8 6.46-1.64-2.07.22-1 2.41-1.28c0 .28.07.56.08.87a6.28 6.28 0 0 1 -1.07 3.5"/><path d="m599.44 1228.58-.29-.1-.07-2.54c.19-.08.42-.18.65-.26v2.62zm3.71.76v-1.34l1.41.6-1.41.73m2.79 2.66.1-.44c.33-.19 1.18-.62 2.25-1.18a1 1 0 0 0 .06.31z"/><path d="m600.6 1230.13-.52-1.3-.64-.23.29-.3v-2.62a6.56 6.56 0 0 1 2.39-.44 6.29 6.29 0 0 1 1 .1v4l-.07.28-1-1-1.52 1.48"/><path d="m605.72 1233-.87-1.12h-.15l.32-.34-1.94-1.93.07-.28 3.69-1.9a6.46 6.46 0 0 1 1.41 2.94c-1 .56-1.88 1-2.22 1.17l-.09.45-.22 1"/><path d="m598.13 1233.45-.61-1.89c-.3-.09-1-.31-1.83-.62a6.34 6.34 0 0 1 1.32-3.26l2.14.8.29.1.64.25.52 1.3-1.57 1.43.51.51h-.32zm1.77 4.19a4.18 4.18 0 0 1 -.51-.2l1.54-2h.25l-1.28 2.17"/><path d="m599.39 1237.44a7.16 7.16 0 0 1 -2.66-2.19l1.4-1.78 1.07-1.38h.34l2.56 2.57 2.58-2.73h.15l.89 1.12 1.62 2a6.55 6.55 0 0 1 -2.66 2.35l-1.55-1.94h-2.22l-1.54 2"/></g><path d="m363.06 672.64-32.15-1.53.27-6 14.43.63v-.06a46.86 46.86 0 0 1 -7.68-4.17l-6.36-3.78.32-6.84 13.47 8.63 18.81-7.5-.34 6.88-13 5.08 3.37 2.2 9.26.43-.42 6" fill="#b7ab8d"/><path d="m365.35 643.57-31.8-5.63 2.95-16.73 4.68.8-1.98 10.78 8.05 1.41 1.82-9.91 4.59.8-1.77 9.96 9.85 1.73 1.93-10.83 4.55.82z" fill="#b7ab8d"/><path d="m370 619.37-28.67-17.07 2.45-7.74 33.05 2.61-2 6.2-8.11-.9-2.22 6.7 7.32 3.94zm-9.71-12.51 1.59-4.93-9.29-1.17-4.42-.72-2.1-.44-.08.06 2.05.83 4.11 2z" fill="#b7ab8d"/><path d="m380.15 589-29.15-13.75 5.34-11.52a7.35 7.35 0 0 1 5.94-4c2.57-.29 6 .9 10.91 3.13 5.73 2.75 12.41 5.85 12.93 11.62l-1.21 4.36zm-.59-9.9c2.35-4.8-.22-6.39-8.7-10.37-6.81-3.24-9.89-3.77-11.41-.53l-1.67 3.54 20.58 9.79z" fill="#b7ab8d"/><path d="m394.65 560.66-27.61-16.91 3.18-5.17 27.62 16.94z" fill="#b7ab8d"/><path d="m404.15 545.82-25.76-19.56 3.66-4.84 22.01 16.76 6.7-8.91 3.86 2.84z" fill="#b7ab8d"/><path d="m419.26 526.53-17.64-28.11 5.72-5.83 28.07 17.35-4.56 4.67-6.85-4.67-5 5.06 4.75 6.91zm-2.94-15.53 3.55-3.61-7.67-5.31-3.63-2.69-1.57-1.32v.05l1.35 1.63 2.68 3.61z" fill="#b7ab8d"/><path d="m433.71 469.94 4.75-3.64 19.78 25.52-5.06 3.84-10.76-6.23a111.57 111.57 0 0 1 -11.22-7.61v.1c1.85 2 4 4.5 6.09 6.87s4.29 4.93 5.86 7l3.67 4.83-4.82 3.65-19.7-25.54 4.95-3.8 10.75 6.45a108.87 108.87 0 0 1 11.45 7.49v-.08c-2-2.18-4-4.5-6.08-6.87s-4.07-4.68-5.89-7l-3.8-5" fill="#b7ab8d"/><path d="m502.34 467.74-5.58 2.13-11.13-30.4 9-3.33 8.19 13.07a60.84 60.84 0 0 1 3.62 6.64v-.11c-.72-3.11-1.31-5.19-1.6-7.32l-2.12-15.18 9-3.36 11 30.39-5.62 2.07-3.47-9.6c-2.23-6-4.36-12-6.2-18.13l4 29.88-3.41 1.23-16-25.51-.28.1c2.67 5.94 5 11.85 7.17 17.94l3.41 9.49" fill="#b7ab8d"/><path d="m533.32 457.68-6.47-31.57 16.6-3.43 1.01 4.63-10.68 2.27 1.64 7.89 9.86-2.05.94 4.71-9.82 1.97 1.95 9.84 10.86-2.27.83 4.65z" fill="#b7ab8d"/><path d="m560.25 452.91-2.66-32.17 5.98-.54 2.12 27.5 11.27-.93.44 4.82z" fill="#b7ab8d"/><path d="m584.63 451.28 9-32 8.09.37 6 32.66-6.42-.3-1.25-8.22-7-.38-2 8.22zm9.44-12.56 5.2.25-1.12-9.32-.52-4.43-.14-2.2-.3 2.2-.82 4.36z" fill="#b7ab8d"/><path d="m616.5 453.36 5.42-31.84 6.03 1.04-4.7 27.11 11 1.93-.78 4.74z" fill="#b7ab8d"/><path d="m666.39 431.91 5.76 1.86-6.6 21.48c-2.23 6.76-5.43 9.41-13 7s-8.79-6.25-6.7-13.13l6.7-21.5 5.82 1.77-6.54 21c-1 3-1.68 6 2.2 7.21 3.67 1.13 4.9-1.69 5.73-4.71l6.61-21.06" fill="#b7ab8d"/><path d="m673.1 468.95 12.97-29.57 5.54 2.34-12.91 29.68z" fill="#b7ab8d"/><path d="m749 477.48 4.71 3.73-14.09 17.63c-4.46 5.53-8.43 6.88-14.65 1.91s-5.92-9.1-1.43-14.68l13.92-17.65 4.79 3.84-13.63 17.23c-2 2.31-3.76 4.94-.59 7.5 3.16 2.4 5.15.13 7.16-2.24z" fill="#b7ab8d"/><path d="m775.06 502.43 4.19 4.39-23.5 22.12-4.32-4.52 5.09-11.37a120.31 120.31 0 0 1 6.48-12.05h-.12c-1.84 2-4.11 4.39-6.37 6.85s-4.39 4.67-6.22 6.4l-4.4 4.23-4.07-4.48 23.38-22.09 4.17 4.51-5.32 11.58a93.4 93.4 0 0 1 -6.25 11.91l.05.05c2-2.24 3.94-4.5 6.2-6.77s4.37-4.43 6.43-6.41l4.58-4.33" fill="#b7ab8d"/><path d="m763 537.75 26.33-18.62 7.23 10.19a7.31 7.31 0 0 1 .63 7.26c-1.07 2.43-3.68 4.85-8.13 7.9-5.17 3.68-11.14 7.88-16.4 5.53l-3.36-3.17zm8.86 4.34c3.07 4.36 5.62 3 13.3-2.35 6.15-4.41 8.1-6.83 6.08-9.75l-2.24-3.14-18.65 13.15z" fill="#b7ab8d"/><path d="m779.27 561.72 32.28-8.05 3.68 7.18-25.3 21.39-2.93-5.67 6.54-5.25-3.2-6.25-8 2.35zm15.76 2 2.2 4.58 7.46-5.73 3.64-2.61 1.85-1.09v-.14l-2 .92-4.33 1.42z" fill="#b7ab8d"/><path d="m828.66 593.09 2 5.64-30.44 10.84-2.11-5.9 9.33-8.24a101.45 101.45 0 0 1 10.5-8.51c-2.44 1.07-5.36 2.45-8.4 3.67s-6 2.5-8.54 3.28l-5.61 2-2.08-5.6 30.49-10.76 2.07 5.86-9.4 8.38c-3.21 2.68-6.3 5.09-10.69 8.36 2.6-1.16 5.59-2.47 8.39-3.61s5.82-2.37 8.52-3.43l6-2" fill="#b7ab8d"/><path d="m821.47 616.06c8.1-1.33 14.15-1.93 16.13 7.53 1 5.09.35 8.75-4.83 11.3l-3.83 1-1.15-5.85c3.2-.8 5.73-1.48 5-5.52-.84-4.66-6.33-3.12-8.79-2.64l-8.75 1.69c-2.64.56-6.9 1.62-6.1 5.75.76 3.31 4.55 3.71 9.28 2.55l-.78-4 4.59-1 2 9.84-17 3.41-1-4.47 3.76-.65v-.1a6.21 6.21 0 0 1 -5.56-4.64c-2-9.68 4.1-11.6 12.53-13.28l4.53-1" fill="#b7ab8d"/><path d="m808.51 650.05a31.87 31.87 0 0 1 5.44.11c2.27.27 5.38 1.67 9.56 5l3.23 2.77c2.2 1.8 3.2 2.74 6.44 2.48 2.87-.27 3.61-1.37 3.56-3.07l-1.83-2.66-4.53-.27-.44-5.63h.93c2.91-.24 10.09-.84 10.61 8.44.31 5.1-2.59 8.92-7.7 9.24a11.41 11.41 0 0 1 -9.12-3.31l-5.31-4.29c-1.28-1.17-3.55-2.88-5.7-2.85l.72 11.29-4.69.32-1.17-17.61" fill="#b7ab8d"/><path d="m351.48 776.55-3.63 1.64-1.18 2.66c.91 1.95 2.4 1.32 4 .68l22.77-10.24 2.33 5.44-21.53 9.71c-1.89.83-4.77 2.31-7.33 1.51s-3.73-3.24-5-5.91a7.22 7.22 0 0 1 .4-6.93c.83-1.29 3.93-3 6.74-4.1l2.41 5.54" fill="#b7ab8d"/><path d="m387.93 798.55 3.1 5.24-19.35 11.61c-6.12 3.65-10.24 3.43-14.28-3.37s-2.44-10.55 3.73-14.29l19.34-11.51 3.07 5.1-18.85 11.25c-2.65 1.7-5.24 3.45-3.09 7 2 3.4 4.72 2 7.4.34l18.93-11.34" fill="#b7ab8d"/><path d="m397.06 828.23c2.3-1.79 4.28-3.68 2.3-6.37-1.29-1.51-2.72-2.05-4.46-.73-1.89 1.56-1.62 3.31-1.46 5.67a56.39 56.39 0 0 1 .4 8.93 8.35 8.35 0 0 1 -3.64 6.3c-4.75 3.83-9.85 2.67-13.48-2-4.53-5.64-2.85-10.22 1.64-13.73l1.84-1.53 3.77 4.7-1.52 1.23c-2.48 1.83-3.7 4-1.86 6.26 1.46 2 3.38 2.17 5.23.63a4.71 4.71 0 0 0 1.82-4.55c0-4-1-8.07 0-12l3-4.27c4.3-3.42 8.53-2.87 12.54 2.19 5.94 7.49 0 11.87-2.53 13.83l-3.55-4.51" fill="#b7ab8d"/><path d="m414.02 833.07 14.28 14.33-3.4 3.32-5.03-4.99-19.35 19.56-4.33-4.28 19.51-19.55-5.09-5.04z" fill="#b7ab8d"/><path d="m414.6 877.99 20.57-24.84 4.62 3.8-20.59 24.89z" fill="#b7ab8d"/><path d="m452.72 891.83-1.15 1.42c-3.54 4.71-7.8 7.4-13.24 3.67-8.19-5.52-5.23-11.12-.48-18.3l2.51-3.84c4.85-6.6 8.81-11.33 16.83-6 4.38 3 5.41 7.06 2.69 11.89l-1.25 2.1-5-3.34c1-1.85 3.27-4.9.78-6.6-3.92-2.63-6.68 2.3-8.11 4.34l-5 7.4c-1.55 2.21-3.75 6-.22 8.27 2.67 1.85 5.33-2.79 6.66-4.36l5 3.34" fill="#b7ab8d"/><path d="m457.89 908.04 14.71-28.66 15.16 7.69-2.13 4.24-9.7-4.93-3.78 7.25 8.96 4.54-2.19 4.26-8.86-4.6-4.54 8.79 9.68 4.99-2.13 4.18z" fill="#b7ab8d"/><path d="m525.58 900.89 19.6 4.37-1.08 4.61-6.74-1.5-6.12 26.89-5.73-1.28 6.01-26.87-6.92-1.57z" fill="#b7ab8d"/><path d="m550.52 938.77 3.25-32.14 5.84.57-1.15 12.7 8.49.88 1.08-12.81 6.06.57-3.09 32.21-5.9-.63 1.25-14.67-8.41-.79-1.33 14.67z" fill="#b7ab8d"/><path d="m591.46 927 .39 13.88-5.91.29-1.22-32.26 11.42-.4c5.31-.15 9.2 1.36 9.46 7.38.08 3.49-.59 7.24-4.71 7.95v.13c3.63.4 4.71 2.55 4.91 5.69l1.69 10.06v.7l-6.65.25c-.72-2.1-.83-6.08-.92-8.2s-.14-4.65-2.29-5.2l-5-.27h-1.15m-.24-4.69 4.82-.15c2-.25 3.5-1.62 3.33-4.69-.1-3.73-1.74-4.21-4-4.21l-4.5.11z" fill="#b7ab8d"/><path d="m617.82 920.45c-1.22-8.1-1.48-14.18 8-15.9s11.3 4.35 12.82 12.34l.8 4.56c1.44 8.59 1.79 14.85-7.94 16.55s-11.39-4.54-12.81-13l-.83-4.54m7.34 6.54c.39 2.69 1.39 6.82 5.44 6.18 4.23-.77 3.53-5.07 3-8.16l-1.27-8.18c-.51-2.51-1.33-8.11-5.77-7.46-4.7.82-3.37 6.25-3 8.82z" fill="#b7ab8d"/><path d="m660.12 896.86 5.75-1.79 6.75 21.52c2.1 6.85.89 10.82-6.75 13.15-7.41 2.36-10.71-.22-12.92-7l-6.66-21.65 5.7-1.74 6.66 21c.85 3 1.91 5.88 5.86 4.62s3-4.11 2.21-7.12l-6.6-21" fill="#b7ab8d"/><path d="m680.9 903.91c-3.18-7.58-5.22-13.5 3.58-17.49 4.65-2.15 8.44-2.43 12.12 2.07l1.91 3.46-5.44 2.4c-1.5-2.87-2.79-5-6.62-3.53-4.17 2-1.51 6.94-.45 9.16l3.75 8.21c1.17 2.36 3.17 6.21 6.91 4.41 3.15-1.41 2.64-5.08.4-9.54l-3.7 1.79-2-4.34 9.06-4.18 7.34 15.7-4.15 1.86-1.46-3.27h-.15a6.18 6.18 0 0 1 -3.26 6.48c-9 4.11-12.33-1.31-15.91-9.07l-2-4.12" fill="#b7ab8d"/><path d="m720.93 904.85-17.46-27.26 5.26-3.2 6.79 10.76 7.11-4.61-6.88-10.69 5.02-3.27 17.46 27.16-5.13 3.33-7.91-12.54-7.12 4.57 7.98 12.55z" fill="#b7ab8d"/><path d="m777.75 860.17-23.86-21.79 3.96-4.51 20.44 18.74 7.51-8.33 3.45 3.18z" fill="#b7ab8d"/><path d="m796.05 839.3-21.73-25.07 4.77-6.56 30.46 12.83-3.64 5.26-7.62-3.47-4.09 5.76 5.61 6.06zm-5.25-14.75 3-4.24-8.26-4-4.11-2.16-1.79-1h-.14l1.73 1.49 3.27 3.09z" fill="#b7ab8d"/><path d="m812.13 784.31c3.13 1 6.89 2.47 10.79 4l-2-1.24c-2.24-1.5-4.63-3-6.84-4.65l-14.63-10.23 2.84-5.56 26 20.16-3.29 6.38-12.41-3.7c-3.24-.93-6.46-2.35-9.68-3.51l-.07.08c2.84 2 5.78 3.7 8.54 5.85l10.38 7.77-3.34 6.39-31.61-9.35 2.88-5.53 17 5.74c2.68.83 5.09 1.86 7.7 2.9l2.14.93c-3.37-2.28-7-4.5-9.53-6.55l-13.48-10.19 2.25-4.56 16.36 4.92" fill="#b7ab8d"/><path d="m689.36 576.84.74 73.14 1.68.87 1.68-.89-.67-73.16-1.72-.81z" fill="#b7ab8d"/><path d="m732.49 690c2.29 2.54 8.66 3.5 10.8-4.81 2.67-11.51-7.35-11.37-7.35-11.37-4.21-1.08-7.9 3.93-10.91 11.67z" fill="#3e4683"/><path d="m724 685.07-.45.82 8.31 5-.29-.17a6.81 6.81 0 0 0 6.66 2c1.78-.42 4.62-1.87 6-7.25 1.07-4.17.48-7.42-1.18-9.7-2.51-3.09-6.69-3.09-7.15-3.09-4.4-.92-8.29 3.12-11.85 12.39m11.7-10.07h.25s3.46 0 5.2 2.32c1.46 1.67 1.66 4.17 1 7.62-.88 3.06-2.32 5.09-4.33 5.64a4.78 4.78 0 0 1 -4.48-1.25l-.12-.22-6.6-4c2.88-7.43 6-10.9 9.13-10.12" fill="#b7ab8d"/><path d="m659.4 716.58 28.6 32.56.34.52c.16-.15 10.35 9.58 18.18-1.77s5.65-11.16 11.74-40.35 10.88-30.4 13.33-32.95 7.88-.41 7.88-.41l-49.79-25.06c-13-3.2-17.75 46.82-21.11 60.34s-9.37 20.77-18.57 18.54-9.33-10.85-8.7-13.61 4.62-8.09 9.93-6.76 9.15 4.91 8.22 9" fill="#3e4683"/><path d="m685.18 649c-8.09 5.14-12.27 29.51-15.32 47.25-.92 5.46-1.8 10.16-2.43 13a48.23 48.23 0 0 1 -3.76 10.47l-3.15-3.55v-.79l-.91-3.4c-1.56-2.52-4.63-4.49-8.26-5.42a8.07 8.07 0 0 0 -6.1 1 11.89 11.89 0 0 0 -5.16 6.6 13.33 13.33 0 0 0 1.63 9.32 12.32 12.32 0 0 0 8 5.6c5.75 1.37 10.47-.5 14.17-5.7 7.1 8.19 49.81 14.18 52.07 2.35l3.46-18c5.24-25.39 9.37-29.18 11.95-31.4l.9-1c1.56-1.72 5.3-.77 6.62-.23l1-2.1-49.76-24.91a5.87 5.87 0 0 0 -5 .84m-34.9 77.76a10 10 0 0 1 -6.62-4.45 10.15 10.15 0 0 1 -1.21-7.73 9.45 9.45 0 0 1 4-5.15l4.47-.68c3 .82 5.65 2.35 6.87 4.27l.7 2.33-.1.95 1 .29-.94.75 3.9 4.34c-3.16 4.73-7.07 6.44-12.08 5.08m19.37-17c.7-3 1.53-7.69 2.5-13.14 2.75-16.38 7.05-41.09 14.14-45.79l3.07-.63s31.27 15.7 44 22.16l-2.63 1.44-1 .79c-2.56 2.41-7.16 6.56-12.57 32.64l-3.49 18c-2.26 12-40.3 5.52-48.51-3.8a48.36 48.36 0 0 0 4.43-11.67" fill="#b7ab8d"/><path d="m684.55 657.47.39 1.61 35.83 18.76 1.6-.51-.52-1.44-35.78-18.79z" fill="#b7ab8d"/><path d="m681.94 663.64.51 1.47 35.79 18.8 1.52-.47-.42-1.5-35.84-18.89z" fill="#b7ab8d"/><path d="m680.39 669.88.51 1.51 35.73 18.84 1.44-.59-.44-1.4-35.69-18.86z" fill="#b7ab8d"/><path d="m678.7 676.68.58 1.6 35.63 18.72 1.56-.46-.48-1.51-35.68-18.78z" fill="#b7ab8d"/><path d="m677.51 683.6.52 1.57 35.7 18.73 1.61-.4-.51-1.63-35.77-18.71z" fill="#b7ab8d"/><path d="m676.55 690.87.52 1.54 35.68 18.76 1.69-.41-.71-1.56-35.62-18.82z" fill="#b7ab8d"/><path d="m676.07 697.13.44 1.58 35.7 18.82 1.52-.49-.42-1.52-35.72-18.78z" fill="#b7ab8d"/><path d="m674.25 702.36.53 1.51 35.69 18.83 1.52-.51-.52-1.5-35.67-18.79z" fill="#b7ab8d"/><path d="m673.03 708.42.45 1.6 35.69 18.71 1.53-.42-.4-1.57-35.82-18.73z" fill="#b7ab8d"/><path d="m671.47 713.42.49 1.57 35.78 18.81 1.55-.49-.55-1.58-35.71-18.7z" fill="#b7ab8d"/><path d="m689.6 724s-12.6-4.38-9.73-14 28.13-52.74 28.13-52.74l5.28 4.11-1.16-9.19 17.67-30.18-14.63 55.92-6.29 2.55 4.57 3.16-8.72 35.82s-5.36 9.26-15.12 4.51" fill="#3e4683"/><path d="m728.82 621.46-18 30.56s.6 4 1 6.72l-4.17-3.19-.71 1.16c-.88 1.77-25.3 43.48-28.25 53-2.49 8.39 5.66 13.68 10.5 15.27h-.15c10.63 5.16 16.65-4.87 16.65-4.94v-.14l8.88-36.65-3.43-2.48c1.87-.74 4.88-2 4.88-2l16.98-64.32-4.2 7m-2.2 8.19c-2.8 11.56-12.12 46.44-12.36 47.41l-7.66 3.17 5.55 4-8.47 34.78c-.33.68-5.15 8-13.56 3.94h-.1c-.35-.24-9.26-3.31-9.26-10l.34-2.49c2.63-8.43 23.57-44.87 27.35-51.46l6.49 5.06-1.62-11.58c.35-.42 8.64-14.51 13.37-22.79" fill="#b7ab8d"/><path d="m720.54 643.57-30.88 75.66.62 1.46 1.5-.65 30.85-75.59-.57-1.49z" fill="#b7ab8d"/><path d="m708.77 690.24-3.99.76-.97 1.34 1.34.92 4.02-.73.96-1.33z" fill="#b7ab8d"/><path d="m705.66 698.73-4.24.4-1.06 1.28 1.21 1.04 4.21-.38 1.04-1.31z" fill="#b7ab8d"/><path d="m695.48 711.67 1.12 1.18 6.59.15 1.06-1.07-1.06-1.17-6.59-.23z" fill="#b7ab8d"/><path d="m683.5 707.27v1.59l5.99 6.14 1.6.02.06-1.57-6.16-6.08z" fill="#b7ab8d"/><path d="m688.44 696.9-.08 1.66 5.15 5.75 1.59.06.1-1.59-5.02-5.71z" fill="#b7ab8d"/><path d="m694.88 684.36-.21 1.62 3.82 5.09 1.54.26.33-1.59-3.93-5.23z" fill="#b7ab8d"/><path d="m700.99 672.95-.13 1.53 2.73 3.25 1.63.2.18-1.68-2.92-3.22z" fill="#b7ab8d"/><path d="m697.65 734.22s-5.91-2.53-7.61-1.91-4.63 2.56-5.18 4.25-2.09 5.7-1 8.38c1.34 2.66 5.87 8.17 5.87 8.17l-44-25.72s-6.27-7.64-5.15-12.29c.78-4.61 3.44-6.69 5.15-7.33l6.86-.17 48.6 27.68" fill="#3e4683"/><path d="m741.5 731.26c.15 20.33-21.42 37-48.14 37.33-27 .22-48.81-16.11-48.92-36.47z" fill="#3e4683"/><path d="m741.5 729.49-98.7.9v1.7c.12 21.32 22.85 38.38 50.56 38.09 27.57-.14 50-17.72 49.8-38.92v-1.77zm-2 3.38c-.92 18.65-21.21 33.72-46.12 34s-45.47-14.49-46.87-33c3.59 0 89.37-.85 93-.93" fill="#b7ab8d"/><path d="m689.53 577.21-53.16 151.46.97 2.21 2.06-.95 53.27-151.68-1.01-2.13z" fill="#b7ab8d"/><path d="m690.45 576.12-.92 2.24 56.85 150.5 2.19 1.07.89-2.28-56.79-150.44z" fill="#b7ab8d"/><path d="m632.23 728.34a3.94 3.94 0 0 0 -3.74 3.91 3.77 3.77 0 0 0 3.78 3.55l8.35-.12a3.75 3.75 0 0 0 3.82-3.68 3.8 3.8 0 0 0 -3.82-3.66zm-1.47 3.81 1.47-1.38 8.39-.09 1.48 1.32-1.48 1.46-8.35.08z" fill="#b7ab8d"/><path d="m742.52 727.43a3.7 3.7 0 1 0 .11 7.39l8.31-.11a3.73 3.73 0 0 0 3.78-3.66 3.89 3.89 0 0 0 -3.87-3.71zm-1.43 3.73 1.43-1.35 8.38-.21 1.52 1.45-1.48 1.43-8.31.07z" fill="#b7ab8d"/><path d="m475.2 578.76.69 77.41 1.76.9 1.7-.9-.67-77.41-1.7-.8z" fill="#b7ab8d"/><path d="m461.46 679.46-22.54 9.54 5.1 6 8.19-.84 10.26-6.51-.52-.85 1-.16v-7.86l-1.52.69m-.86 2.72.17 3.93-9.41 5.81-6.48.68-2.22-2.9c2.22-.86 15.54-6.49 17.94-7.52" fill="#b7ab8d"/><path d="m453.1 690.85-.05-1.83 7.72-3v.1l-7.67 4.74m.49 62.53-.49-59.81 2.19-1.38c.09 8.85.55 54.3.71 57.43 2.71-1.37 18.92-9.56 20.13-10.25 0-1.19-.51-53.77-.51-56.67-1.62.53-8.68 3.35-14 5.52l.88-.58-.52-.85 1-.16v-1.46l13.32-5.18 1.52-.69.7 61.62-24.93 12.48" fill="#b7ab8d"/><path d="m453.1 693.57v-2.72l7.67-4.74v-.11l2.21-.87v1.49l-1 .16.52.85-.88.56-6.3 2.53v1.46l-2.23 1.38" fill="#b7ab8d"/><path d="m469.85 697.36-8.42 4.23-.57 1.38 1.47.62 8.48-4.23.56-1.52z" fill="#e2e3e4"/><path d="m454.23 689.89-14.23-.34.61 60.98 14.21 1.01z" fill="#3e4683"/><path d="m439 689.55.42 62 16.53 1.28-.6-64.08-16.35-.36zm2.12 1.12c1.9.11 10.31.29 11.95.29 0 2.14.57 57 .61 59.42-2-.23-10.36-.86-12-1 0-2-.48-56.48-.56-58.76" fill="#b7ab8d"/><path d="m441.78 693.82 1.11 1.21 8.68.41 1.05-1.14-.92-1.2-8.7-.37z" fill="#3e4683"/><path d="m510.79 651.54-31.6 12.57.87 86.61 31.43-16.03z" fill="#3e4683"/><path d="m510.33 650.41-32.17 12.94.63 89.23 33.89-17.2-.68-85.51-1.68.54m-.66 2.76c0 3.18.66 79.43.79 80.78-1.17.64-26.48 13.37-29.43 14.91 0-3.54-.68-82.49-.68-84 1.33-.6 26.66-10.63 29.32-11.74" fill="#b7ab8d"/><path d="m504.38 668.5-19.51 9.23-.5 1.48 1.47.59 19.58-9.33.47-1.5z" fill="#b7ab8d"/><path d="m479.19 664.11-19.97-.47.78 85.61 20.06 1.47z" fill="#3e4683"/><path d="m462.22 669.67 1.07 1.09 12.14.51 1.09-1.07-.95-1.16-12.23-.47z" fill="#b7ab8d"/><path d="m462.22 677.73.96 1.21 11.86.68 1.27-1.17-1.11-1.18-11.91-.66z" fill="#b7ab8d"/><path d="m523.39 680.57-22.41 8.91.49 61.64 22.55-11.38z" fill="#3e4683"/><path d="m523 679.57-23.19 9.09.56 64.19 24.84-12.47-.58-61.49zm-.73 2.64c.09 3.09.58 55.44.58 56.76-1.15.57-17.54 8.92-20.16 10.27 0-3.36-.59-57.5-.59-59 1.28-.5 17.61-7 20.17-8" fill="#b7ab8d"/><path d="m500.98 689.48-14.19-.34.51 60.98 14.17 1z" fill="#3e4683"/><path d="m485.56 689.14.68 61.89 16.4 1.3-.59-64-16.49-.33v1.19m2.26 1.1c1.76.14 10.26.37 12.08.37 0 2 .42 56.94.42 59.28-1.84-.11-10.3-.75-11.91-.89 0-1.92-.59-56.47-.59-58.76" fill="#b7ab8d"/><path d="m518.64 692.3-13.86 6.6-.46 1.51 1.62.49 13.73-6.56.48-1.53z" fill="#b7ab8d"/><path d="m518.72 700.06-13.78 6.61-.58 1.46 1.53.58 13.85-6.61.52-1.52z" fill="#b7ab8d"/><path d="m490.12 696.34 1.22 1.14 4.63.34 1.23-1.06-1.06-1.19-4.77-.29z" fill="#b7ab8d"/><path d="m573.11 773.5s21.07-.71 24.09-3.86" fill="#b7ab8d"/><path d="m571.81 784s9.27.94 11.77.7 12.83-3.41 12.83-3.41" fill="#b7ab8d"/><path d="m601.6 826.62 4.77-23.23s.85 3.24.36 10.08-5.13 13.15-5.13 13.15" fill="#b7ab8d"/><g clip-path="url(#a)"><path d="m601.6 803.4h5.63v23.22h-5.63z" fill="#b7ab8d"/></g><path d="m611.15 822.34.7-19.11s.86 4.6 1.19 8.53c.18 3.76-1.89 10.58-1.89 10.58" fill="#b7ab8d"/><path d="m527.42 733.13c0 20.33-21.46 37.08-48.27 37.34s-48.55-16.09-48.83-36.47l97.1-.88" fill="#3e4683"/><path d="m527.42 731.41-98.84.92.08 1.68c.22 21.27 22.91 38.43 50.53 38.09 27.68-.13 50.08-17.72 49.87-39v-1.73h-1.63m-1.95 3.41c-1.24 18.64-21.36 33.77-46.32 33.92s-45.44-14.45-46.81-33.11c3.59 0 89.45-.73 93.13-.81" fill="#b7ab8d"/><path d="m475.43 579.07-53.26 151.54.99 2.15 2.31-1.03 53.15-151.52-1.17-2.24z" fill="#b7ab8d"/><path d="m476.35 578.01-.92 2.26 56.69 150.59 2.3.89 1-2.15-56.8-150.54z" fill="#b7ab8d"/><path d="m580.81 529.89c-8.29 0-11.29 8.32-14.19 16.33-4.17 11.35-7.42 18.78-15.36 18.78-2.93 0-7.39-2.68-11.08-5-5-2.95-9.94-5.88-15-5.71-6.73 0-12.11 5.31-16.81 9.94l-2.95 2.77-4.22-3.42a7 7 0 0 0 -9.86.11 6.79 6.79 0 0 0 .14 9.79c2.44 2.44 8.71 7.9 14.94 7.86 4.49 0 7.84-3.33 11.67-7.27 4.86-4.63 6.59-5.72 7.2-5.86 1.2 0 5.57 2.5 7.82 3.93 5.31 3.22 11.51 6.95 18.21 6.81 18.2-.08 24.51-17.52 28.28-27.92a51.12 51.12 0 0 1 3.23-7.34h.51c.91 1.55 2.39 5.52 3.11 7.27 4 10.38 10.51 27.62 28.78 27.44 6.79 0 12.77-3.82 18.16-7.19 2.22-1.41 6.48-4 7.8-4 .57.08 2.26 1.17 7.1 5.79 4 3.83 7.32 7.07 11.93 7 6.17 0 12.4-5.68 14.81-8.18a6.91 6.91 0 0 0 -9.83-9.72l-4.32 3.41-3-2.55c-4.77-4.51-10.08-9.74-16.84-9.67-5.29.07-10 3-15 6.09-3.68 2.39-8.13 5.1-11 5.1-7.88.11-11.49-7.32-15.59-18.52-3.19-8-6.4-16.19-14.69-16.16l-4 .14m-11 17.58c2.74-7.66 5.17-14.2 11.12-14.31h4c5.92 0 8.5 6.49 11.24 14.05 4.58 11.74 8.88 20.74 19.07 20.65 3.78-.07 8.44-3 12.66-5.59 4.54-2.89 8.84-5.66 13.24-5.66 5.43 0 10.23 4.64 14.44 8.7l4.9 4.34.79-.58a20.77 20.77 0 0 0 6.38-4.69h5v5c-3.31 3.51-8.46 7.17-12.36 7.17-3.11.07-5.83-2.58-9.58-6.07-4.44-4.3-7.49-6.83-9.55-6.83s-5.29 1.93-9.53 4.59c-4.95 3.06-10.57 6.65-16.33 6.65-15.86.2-21.57-14.47-25.7-25.22-1.73-4.65-3-7.6-4.08-8.83l-.55-.58h-4l-.43.54c-1.13 1.33-2.36 4.28-4.12 8.95-3.86 10.81-9.23 25.56-25.06 25.72-5.89.06-11.56-3.39-16.53-6.41-4.2-2.6-7.37-4.51-9.51-4.39s-5.13 2.6-9.44 6.93c-3.64 3.45-6.38 6.3-9.45 6.31-4.05 0-9.08-3.6-12.62-7v-5h5a23.76 23.76 0 0 0 6.37 4.65l.93.36.66-.59 4-3.67c4.22-4.17 8.95-8.94 14.37-9 4.22 0 8.65 2.54 13.26 5.44 4.19 2.45 8.94 5.34 12.84 5.34 10.15-.09 14.24-9.16 18.52-21" fill="#b7ab8d"/><path d="m677.07 572.28c-2.17 1.56-7.42 5.71-9 5.71l-169.47 1.59c-1.65 0-7.26-4.28-9.2-5.66-5-3.65-9.35-6.89-14.36-6.89-8 0-12.71 7.76-14.24 14.11a7.26 7.26 0 0 0 14.1 3.46l1-2.36 4.82 3.38c5.69 4.21 11.45 8.52 18.05 8.39l169.26-1.46c6.49-.09 12.28-4.51 17.81-8.73l4.83-3.54 1 2.32a7.26 7.26 0 0 0 8.94 5.16 7.36 7.36 0 0 0 5.1-8.86c-1.73-6.31-6.49-13.87-14.58-13.78-4.91.06-9.13 3.37-14.13 7.16m-9 9.22c2.46-.08 6.41-3 11-6.5h.14c4.42-3.52 8.38-6.42 12-6.51 6.13 0 9.86 6.08 11.13 11.4a3.77 3.77 0 0 1 -2.59 4.64 4 4 0 0 1 -4.76-2.76l-2.73-5-.81-.68-.87.45c-1.44.53-3.73 2.25-6.73 4.57-5.14 3.82-10.36 7.93-15.78 8l-169.3 1.52c-5.45 0-10.82-4-16-7.79a42.45 42.45 0 0 0 -6.73-4.46l-1-.42-.82.81c-1 .84-2.07 3.2-2.63 4.92a3.81 3.81 0 0 1 -7.41-1.8c1.24-5.3 5-11.45 11-11.5 3.69-.05 7.65 2.85 12.16 6.2s8.78 6.31 11.24 6.29z" fill="#b7ab8d"/><path d="m590 743.87c-11.4 2-40.14 16.3-41.35 16.85l-.26.13-.15.12c-1.18 1.2-5.13 5.08-5.13 7.91a67 67 0 0 0 .93 7.79l.24 2.27 2.08-1c.36-.23 33.75-15.73 44.82-16.73s30.84 9.28 31.13 9.43l3.13 1.57-3.12-14.8-.47-.51c-.7-.45-20.14-15.11-31.85-13.07m.48 3.34c9.6-1.63 26.08 10.24 28.76 12.16.13.8.76 3.81 1.43 6.68-6.25-2.87-20.42-9-29.84-8.21-10.09.88-36.1 12.56-43.72 16l-.49-5c0-.75 1.77-3.16 3.79-5.06 2.54-1.33 29.79-14.66 40.07-16.53" fill="#b7ab8d"/><path d="m581.59 549.89c-.36 1-5.44 25.75-5.44 30.61l.14 3.77c.16 7.19.57 20.46-.82 25.12-1.55 5.93-4.73 35.09-2 51.73 1.59 10.15-.32 19.47-2.5 30.31-.89 4.91-1.94 10.15-2.66 15.65-3 21.52-20.29 54.07-20.38 54.36l-2.58 4.82 4.84-2.41c.3-.27 31.27-15.6 40.23-16.64s25.59 8 25.74 8l5.61 3-3.41-5.44c-9.28-14.87-20-36.72-17.69-55.91 1.52-14.21-3.28-32.52-6.63-38.85-2.34-4.77-.84-27.33.3-34 1-6 1.67-32.43-3.37-40.43s-6.2-33.15-6.2-33.46l-.49-13.62-2.72 13.34m-10.02 157.74c.79-5.57 2-10.58 2.83-15.54 1.78-8 3.24-15.66 3.21-23.47a46.15 46.15 0 0 0 -.77-8 113.45 113.45 0 0 1 -1.09-14.2c-.05-15 1.89-31.95 3.21-36.06.84-3.35.94-9.58.94-16.55 0-3.11-.1-6.39-.22-9.58v-3.79c0-2.26 1.37-10.35 2.84-17.9.93 8.13 2.6 18.11 5.7 22.92 2.52 4.09 3.44 14.83 3.44 24a83.68 83.68 0 0 1 -.58 14 158.94 158.94 0 0 0 -1.47 23.73c0 5.33.48 10.07 1.58 12.4 2.55 5 6.38 18.69 6.41 30.79a58.22 58.22 0 0 1 -.24 6.16 38.6 38.6 0 0 0 -.32 6.09c.24 16.38 7.82 33.67 15.57 47.07-6-2.68-15.8-6.55-22.45-5.83-7.54.79-27.63 10.16-36.8 14.65 5-9.84 16-33.52 18.26-50.94" fill="#b7ab8d"/><path d="m582.62 592.09c0 .46.17 11.16 1.13 18.8.56 4.83-.38 24.39-.92 37.42-.39 7.14-.66 12.45-.59 14a378.43 378.43 0 0 1 -1 41.82c-.26 4.14-.33 7-.33 8.73 1 14.12 5.84 31.38 6 32.21l2 1.19 1.17-2.1c0-.21-5-17.77-5.8-31.4-.06-1.68.08-4.49.36-8.42a362.11 362.11 0 0 0 1-42.18c0-1.4.13-7.06.48-13.68.77-13.94 1.64-32.9.94-38a181.63 181.63 0 0 1 -.94-18.43l-1.81-1.68-1.69 1.75" fill="#b7ab8d"/><path d="m597.08 795.69 2.58 3.9c1.18 2.43 2.68 5.55 6.65 5.49 3.43 0 12.94-1 18.89-1.56a24.69 24.69 0 0 0 -6 10.23c-1 2.87-1.85 4.72-4.89 6.33-8.11 4-17.05 6.74-22.87 6.74-5.61 0-14.43-6.92-17.25-12.39-1.62-3.26-6.71-14.13-3.1-20.48 3.26-5.61 4.07-25.07 4.25-27.27l-3.59-.16c-.23 5.79-1.32 21.65-3.65 25.79-4.27 7.56.77 19.13 3.08 23.66 3.17 6.49 13.31 14.31 20.26 14.26 6.47-.13 15.76-2.81 24.52-7.13 4.18-2.11 5.29-5.12 6.37-8.22 1.25-3.42 2.6-7.41 8.8-12.3l4.67-3.58-5.95.61s-18.65 2-23.54 2.14c-1.61 0-2.26-1-3.51-3.61a15.53 15.53 0 0 0 -3.53-5.15c-1.34-1.92-.46-18.5 1.35-32.69l-3.43-.38c-1.82 15-3.23 33.38-.11 35.81" fill="#b7ab8d"/><path d="m573.11 771.74.07 3.47c5.12-.1 22.13-1 25.2-4.44l-2.45-2.28c-1.64 1.62-13.1 3-22.82 3.25" fill="#b7ab8d"/><path d="m583.34 782.8c-1.63.29-7.67-.22-11.33-.64l-.47 3.49c1.11.05 9.6 1 12.18.69s12.08-3.16 13.14-3.54l-1.06-3.24c-2.79.87-10.62 3.14-12.46 3.24" fill="#b7ab8d"/><path d="m584.25 795.24a45.82 45.82 0 0 1 -15.19-2.53l-1.27 3.21a51.17 51.17 0 0 0 16.46 2.68 19 19 0 0 0 14.48-6.47l-2.73-2.13c-.23.28-4 5.11-11.79 5.21" fill="#b7ab8d"/><path d="m595.31 814.14c-3.87 5.41-15.66 6.85-15.71 6.93l.43 3.33c.47 0 13.2-1.64 18-8.18s5.69-15.11 5.69-15.41l-3.31-.42c-.13.16-.94 8.17-5.12 13.75" fill="#b7ab8d"/><path d="m604.78 803.85a37.75 37.75 0 0 1 .23 9.47c-.49 6.23-4.87 12.25-4.89 12.28l2.68 2.09c.28-.31 5-6.85 5.65-14.13.49-7.07-.44-10.48-.44-10.6z" fill="#b7ab8d"/><path d="m609.45 803.79a59.73 59.73 0 0 1 1.29 8.05c.06 2.74-1.29 8.06-1.88 9.82l4.5 1.44c.17-.71 2.28-7.4 2-11.52a51.13 51.13 0 0 0 -1.46-8.77l-4.49 1" fill="#b7ab8d"/><path d="m587.41 805.53c-5.56 2.75-17.08 1.31-17.16 1.31l-.4 3.48c.4 0 12.59 1.53 19.09-1.75s12.11-10.47 12.43-10.76l-2.64-2.11c-.12.11-5.64 6.9-11.32 9.83" fill="#b7ab8d"/><path d="m508 679-21.84 10.22 15.55 1.42 7.39-3.4-.64-1h1.18v-8zm-.68 2.78v3.92l-9.31 5.93-8.81-2.26c2.3-1 15.61-6.54 18.08-7.59" fill="#b7ab8d"/><path d="m489.46 649.77-31.1 13.23 21.12 2.82 11-5.31-.6-1h1v-10.37l-1.47.63m-.79 2.72c0 2.07 0 5.65.14 6.49l-26.64 4.77c2.4-1 23.92-10.11 26.5-11.26" fill="#b7ab8d"/><path d="m344.89 705.66-.67.58.67 15 5.37 2.4 13.79-7.39-.05-1c0-.31-.44-6.26-4.78-8.08l-3.33-1-3-1.74a7.68 7.68 0 0 0 -8 1.2m6.65 2 2.68 1.52.74.29 2.88.86 2.46 4.11-10.08 5.35-2-.75-.37-11.17zm7.68-.46h-.15z" fill="#b7ab8d"/><path d="m336.15 706.39-2.2 2.67-2.85 2a7.5 7.5 0 0 0 -1.86 5.33 16.94 16.94 0 0 0 1 5.27l.43 1 14 2 4.11-4-.22-15.53-1.33-.25c-.79-.15-7.79-1.78-11.08 1.42m-3.49 9.91.89-2.69 2.37-1.93.67-.6 1.81-2.25c1.38-1.2 4.49-1.1 6.81-.73v11.31l-1.71 1.68c-1.42-.12-8.53-1.23-10.33-1.51zm3.37-9.85.12-.06z" fill="#b7ab8d"/><path d="m361.44 714-12.88 6.44-1.15 5.56 9.81 12 1.21-.41c.79-.23 7.28-2.57 8.15-7l.31-3.42 1.19-3.28v-1.12c0-4.27-4.21-8.1-4.71-8.57l-.93-.74-1 .57m.3 3.61c1.47 1.44 2.95 3.41 2.95 5.13v.46l-1 3-.11.76-.35 3c-.29 1.61-2.76 3-4.78 4l-7.28-8.91.4-2.36c1.11-.59 8.4-4.27 10.19-5.13" fill="#b7ab8d"/><path d="m329.44 715.62c-.6 1-2.81 5.47-2.81 9.12l.51 2.36 1.54 2.86 1 3.06c1.67 4.1 8.45 4.92 9.15 5.08h1l7.82-13-2.08-5.1-15.44-5.82zm3.49 16.11-.93-2.73-.32-.8-1.31-2.37-.14-1.08c-.09-1.64.8-4.11 1.71-6.15 2.24.88 10 3.77 11.1 4.11l.75 2-5.58 9.6c-2-.31-4.84-1.21-5.27-2.61" fill="#b7ab8d"/><path d="m349.52 723.1h-4.79l-9.33 12.29.56 1c.46.77 3.93 6.58 8.41 6.49l3.48-.45 3.15.42c4.55-.05 8-6 8.46-6.64l.49-1-9.62-12.13h-.81m-.74 3.43 7.08 8.9-4.86 3.95-2.95-.23h-.86l-2.82.26c-1.63 0-3.66-2.11-4.84-3.82l6.91-9z" fill="#b7ab8d"/><path d="m341.18 722.84a6.39 6.39 0 0 0 12.78-.12 6.51 6.51 0 0 0 -6.38-6.33 6.38 6.38 0 0 0 -6.4 6.45m3.49 0 2.91-3.07 2.93 3-2.84 3z" fill="#b7ab8d"/><path d="m821.82 705.66-.64.58.64 15 5.49 2.4 13.69-7.34-.12-1c0-.31-.35-6.26-4.77-8.08l-3.27-1-3-1.74c-4.33-1.94-7.81 1.06-8 1.2m6.61 2 2.87 1.52.63.29 2.89.86 2.41 4.11-10.07 5.35-2-.75-.39-11.17zm7.68-.46h-.06z" fill="#b7ab8d"/><path d="m813.07 706.39-2.2 2.67-2.76 2a7.3 7.3 0 0 0 -1.83 5.33 19.3 19.3 0 0 0 .87 5.27l.43 1 14 2 4.19-4-.2-15.53-1.4-.25c-.75-.15-7.73-1.78-11.07 1.42m-3.43 9.91.83-2.69 2.43-1.93.62-.6 1.86-2.25c1.34-1.2 4.52-1.1 6.73-.73v11.31l-1.7 1.68c-1.35-.12-8.52-1.23-10.33-1.51zm3.38-9.85.05-.06z" fill="#b7ab8d"/><path d="m838.42 714-12.9 6.44-1.2 5.56 9.93 12 1.15-.41c.71-.23 7.24-2.57 8.08-7l.4-3.42 1.12-3.28v-1.19c0-4.27-4.23-8.1-4.66-8.57l-.87-.74-1.05.57m.29 3.61c1.31 1.44 2.87 3.41 2.87 5.13v.46l-.91 3-.21.76-.44 3c-.09 1.61-2.68 3-4.62 4l-7.35-8.91.47-2.36c1.18-.59 8.37-4.27 10.19-5.13" fill="#b7ab8d"/><path d="m806.36 715.62c-.56 1-2.78 5.47-2.78 9.12l.58 2.36 1.51 2.86 1 3.06c1.58 4.1 8.45 4.92 9.09 5.08h1.14l7.77-13-2.11-5.1-15.56-5.82-.66 1.44m3.42 16.11-.76-2.73-.34-.8-1.28-2.37-.24-1.08c-.08-1.64.82-4.11 1.8-6.15 2.21.88 9.86 3.77 11.1 4.11l.81 2-5.69 9.6c-1.94-.31-4.79-1.21-5.34-2.61" fill="#b7ab8d"/><path d="m826.47 723.1h-4.76l-9.4 12.29.59 1c.5.77 4 6.58 8.46 6.49l3.36-.45 3.31.42c4.49-.05 8-6 8.31-6.64l.55-1-9.58-12.13h-.84m-.73 3.43 7.06 8.9-4.8 3.95-3.07-.23h-.82l-2.78.26c-1.74 0-3.87-2.11-4.88-3.82l6.91-9z" fill="#b7ab8d"/><path d="m818.18 722.84a6.35 6.35 0 0 0 12.69-.12 6.35 6.35 0 1 0 -12.69.12m3.37 0 3-3.07 2.89 3-2.84 3z" fill="#b7ab8d"/><path d="m529.08 729.57a3.82 3.82 0 0 0 -3.61 3.82 3.62 3.62 0 0 0 3.69 3.57h8.34a3.7 3.7 0 0 0 0-7.4h-8.42m-1.38 3.82 1.4-1.49h8.4l1.56 1.39-1.56 1.43-8.4.11z" fill="#b7ab8d"/><path d="m418.83 730.59a3.68 3.68 0 1 0 .08 7.35l8.41-.07a3.65 3.65 0 0 0 3.66-3.65 3.71 3.71 0 0 0 -3.74-3.78zm-1.36 3.69 1.36-1.41 8.49-.07 1.35 1.48-1.35 1.31-8.41.13z" fill="#b7ab8d"/><path d="m645.46 706.76c-2.4.87-5.1 3.4-6.06 8.18-.94 5 4.8 12.29 5.51 13.16l.15.09 4.59 2.83 45.69-.5-42.18-24c-1.17-.69-5.31-.17-7.7.2m-3.77 9.4v-.79c.93-4.94 3.77-6.22 4.51-6.51 2.21-.33 5.23-.47 5.79-.19 0 0 25.72 14.56 39.75 22.59h-2.14l-3.09 1.78c-2.58-1.58-26 2.68-31.53-.47-11.41-6.76-8.17-5.85-8.46-6.05-1.46-1.87-4.83-6.8-4.83-10.27" fill="#b7ab8d"/><path d="m458.12 663.43.68 70.57 22.11 1.31-.6-72.49-22.2-.38v1m2.25.88c2 0 15.77.27 17.79.37 0 1.69.52 66.69.51 68.61-2-.16-15.9-1-17.67-1 0-1.66-.6-66.07-.63-67.94" fill="#b7ab8d"/></svg>